/* XPM */
static char * icon_xpm[] = {
"46 46 217 2",
"  	c None",
". 	c #A4C8CB",
"+ 	c #8EB7B8",
"@ 	c #8FB9B3",
"# 	c #468589",
"$ 	c #51DBDC",
"% 	c #2CBAC4",
"& 	c #69ADB4",
"* 	c #90B2B2",
"= 	c #4BABA0",
"- 	c #34D9D7",
"; 	c #1BE3E8",
"> 	c #1ADBE1",
", 	c #2BAFBB",
"' 	c #3E6A72",
") 	c #AACCB1",
"! 	c #5B9169",
"~ 	c #8EB9B8",
"{ 	c #2FE1D6",
"] 	c #1BDFDE",
"^ 	c #21DAD8",
"/ 	c #27C0CB",
"( 	c #337177",
"_ 	c #98B2C7",
": 	c #516677",
"< 	c #B7BABB",
"[ 	c #AFCEB3",
"} 	c #78B87C",
"| 	c #5EC96D",
"1 	c #24A83F",
"2 	c #51945C",
"3 	c #619674",
"4 	c #57D9C8",
"5 	c #2BD7D7",
"6 	c #18D6CC",
"7 	c #21CCCC",
"8 	c #29C3E0",
"9 	c #2F90AD",
"0 	c #4D6987",
"a 	c #4F7499",
"b 	c #3A81BF",
"c 	c #1C4F95",
"d 	c #4F6191",
"e 	c #555C71",
"f 	c #66A26D",
"g 	c #1DB52B",
"h 	c #0FC52D",
"i 	c #0EBC28",
"j 	c #17B33C",
"k 	c #1FC17D",
"l 	c #3CE3DB",
"m 	c #36DFE5",
"n 	c #2CCDD5",
"o 	c #24B0C5",
"p 	c #2791CA",
"q 	c #3B74C1",
"r 	c #2358A9",
"s 	c #115AB1",
"t 	c #0B57BC",
"u 	c #0D43A9",
"v 	c #0F2D7F",
"w 	c #79A27A",
"x 	c #36BD3C",
"y 	c #0BBE1A",
"z 	c #0CB616",
"A 	c #0BB32D",
"B 	c #17C76F",
"C 	c #3CE6D3",
"D 	c #52DDE5",
"E 	c #5EC9E3",
"F 	c #4EA0CC",
"G 	c #4190CA",
"H 	c #4177C4",
"I 	c #1D59B1",
"J 	c #044FAA",
"K 	c #0E58B4",
"L 	c #0E3EA3",
"M 	c #10338E",
"N 	c #5B815B",
"O 	c #07520A",
"P 	c #168A16",
"Q 	c #09A811",
"R 	c #11BA34",
"S 	c #17B64B",
"T 	c #5AE9CF",
"U 	c #73DDE6",
"V 	c #8BC9DF",
"W 	c #A8BEDC",
"X 	c #B0B8DC",
"Y 	c #9894CE",
"Z 	c #4A59A9",
"` 	c #445BB9",
" .	c #112E8A",
"..	c #58649A",
"+.	c #245E22",
"@.	c #1FA01E",
"#.	c #23CC59",
"$.	c #33C35C",
"%.	c #62DCAD",
"&.	c #9FECE4",
"*.	c #CEE7F0",
"=.	c #F6DEE7",
"-.	c #F3CEDE",
";.	c #E6B4E1",
">.	c #E0A5E6",
",.	c #CD88D3",
"'.	c #5C468F",
").	c #F8F7F9",
"!.	c #E4EBD6",
"~.	c #92DA67",
"{.	c #3FC546",
"].	c #48C149",
"^.	c #5BD085",
"/.	c #94E5BF",
"(.	c #D1F2E4",
"_.	c #F4EBD4",
":.	c #DEB4A0",
"<.	c #DE9CA7",
"[.	c #EEA6DE",
"}.	c #E285D1",
"|.	c #BE74C4",
"1.	c #A287A0",
"2.	c #B4BB91",
"3.	c #C8C989",
"4.	c #E0D87F",
"5.	c #CBD645",
"6.	c #9CCB3C",
"7.	c #9BC943",
"8.	c #9AD879",
"9.	c #A9D98B",
"0.	c #D9ECB3",
"a.	c #F0DCAA",
"b.	c #DC9474",
"c.	c #D67375",
"d.	c #D472B3",
"e.	c #CF68C3",
"f.	c #D06CCE",
"g.	c #B367B5",
"h.	c #AF80B7",
"i.	c #BEBF99",
"j.	c #CDCD3B",
"k.	c #E0D63E",
"l.	c #E7D030",
"m.	c #E3C63C",
"n.	c #D7CD41",
"o.	c #E3E46E",
"p.	c #E4DD73",
"q.	c #F6DE8D",
"r.	c #D7A160",
"s.	c #CA5F40",
"t.	c #CB4842",
"u.	c #CE5084",
"v.	c #CC62B8",
"w.	c #D169CF",
"x.	c #D455C7",
"y.	c #93378A",
"z.	c #907C92",
"A.	c #D2CFA4",
"B.	c #DFD24F",
"C.	c #E9CF2F",
"D.	c #F1CA2A",
"E.	c #E7BC3F",
"F.	c #DFC44A",
"G.	c #E9DA61",
"H.	c #F3D062",
"I.	c #BB6630",
"J.	c #B13A15",
"K.	c #DB5736",
"L.	c #C84533",
"M.	c #CF5583",
"N.	c #CB5FAD",
"O.	c #DC68C4",
"P.	c #D14EB3",
"Q.	c #B04DA0",
"R.	c #8C6E8C",
"S.	c #A5A082",
"T.	c #4C3E12",
"U.	c #B99932",
"V.	c #997E21",
"W.	c #45370C",
"X.	c #4A380E",
"Y.	c #984E24",
"Z.	c #BA4D26",
"`.	c #AE240B",
" +	c #B21309",
".+	c #AD1A10",
"++	c #701D1C",
"@+	c #6B4257",
"#+	c #6F3C61",
"$+	c #B44394",
"%+	c #6F205A",
"&+	c #7D556F",
"*+	c #79694A",
"=+	c #685A43",
"-+	c #8F5251",
";+	c #B0140B",
">+	c #B91804",
",+	c #BB0B09",
"'+	c #900303",
")+	c #907878",
"!+	c #522245",
"~+	c #4B3545",
"{+	c #AF6F6B",
"]+	c #BA2821",
"^+	c #C61307",
"/+	c #BF0907",
"(+	c #9F0D0B",
"_+	c #4D1A16",
":+	c #653533",
"<+	c #470503",
"[+	c #970D0A",
"}+	c #6C0403",
"|+	c #774546",
"1+	c #C8B9B8",
"2+	c #A49D9F",
"3+	c #460D10",
"4+	c #644846",
"                                          . . . +                                           ",
"                                          . . . +                                           ",
"                                          . . . +                                           ",
"                              @ @ @ # # # $ $ $ % & & & * * *                               ",
"                              = = = - - - ; ; ; > , , , ' ' '                               ",
"                              = = = - - - ; ; ; > , , , ' ' '                               ",
"                              = = = - - - ; ; ; > , , , ' ' '                               ",
"        ) ) ) ! ! !           ~ ~ ~ { { { ] ] ] ^ / / / ( ( (           _ _ _ : : : <       ",
"        ) ) ) ! ! !           ~ ~ ~ { { { ] ] ] ^ / / / ( ( (           _ _ _ : : : <       ",
"        ) ) ) ! ! !           ~ ~ ~ { { { ] ] ] ^ / / / ( ( (           _ _ _ : : : <       ",
"[ [ [ } | | | 1 1 1 2 2 2 3 3 4 4 4 5 5 5 6 6 6 7 8 8 8 9 9 9 0 0 a a a b b b c c c d e e e ",
"[ [ [ } | | | 1 1 1 2 2 2 3 3 4 4 4 5 5 5 6 6 6 7 8 8 8 9 9 9 0 0 a a a b b b c c c d e e e ",
"[ [ [ } | | | 1 1 1 2 2 2 3 3 4 4 4 5 5 5 6 6 6 7 8 8 8 9 9 9 0 0 a a a b b b c c c d e e e ",
"f f f g h h h i i i j j j k k l l l m m m n n n o p p p q q q r r s s s t t t u u u v       ",
"f f f g h h h i i i j j j k k l l l m m m n n n o p p p q q q r r s s s t t t u u u v       ",
"w w w x y y y z z z A A A B B C C C D D D E E E F G G G H H H I I J J J K K K L L L M       ",
"w w w x y y y z z z A A A B B C C C D D D E E E F G G G H H H I I J J J K K K L L L M       ",
"w w w x y y y z z z A A A B B C C C D D D E E E F G G G H H H I I J J J K K K L L L M       ",
"N N N O P P P Q Q Q R R R S S T T T U U U V V V W X X X Y Y Y Z Z ` ` `  . . .......        ",
"N N N O P P P Q Q Q R R R S S T T T U U U V V V W X X X Y Y Y Z Z ` ` `  . . .......        ",
"N N N O P P P Q Q Q R R R S S T T T U U U V V V W X X X Y Y Y Z Z ` ` `  . . .......        ",
"        +.+.+.@.@.@.#.#.#.$.$.%.%.%.&.&.&.*.*.*.=.-.-.-.;.;.;.>.>.,.,.,.'.'.'.).).).        ",
"        +.+.+.@.@.@.#.#.#.$.$.%.%.%.&.&.&.*.*.*.=.-.-.-.;.;.;.>.>.,.,.,.'.'.'.).).).        ",
"        +.+.+.@.@.@.#.#.#.$.$.%.%.%.&.&.&.*.*.*.=.-.-.-.;.;.;.>.>.,.,.,.'.'.'.).).).        ",
"        !.!.!.~.~.~.{.{.{.].].^.^.^./././.(.(.(._.:.:.:.<.<.<.[.[.}.}.}.|.|.|.1.1.1.        ",
"2.2.2.3.4.4.4.5.5.5.6.6.6.7.7.8.8.8.9.9.9.0.0.0.a.b.b.b.c.c.c.d.d.e.e.e.f.f.f.g.g.g.h.      ",
"2.2.2.3.4.4.4.5.5.5.6.6.6.7.7.8.8.8.9.9.9.0.0.0.a.b.b.b.c.c.c.d.d.e.e.e.f.f.f.g.g.g.h.      ",
"2.2.2.3.4.4.4.5.5.5.6.6.6.7.7.8.8.8.9.9.9.0.0.0.a.b.b.b.c.c.c.d.d.e.e.e.f.f.f.g.g.g.h.      ",
"i.i.i.j.k.k.k.l.l.l.m.m.m.n.n.o.o.o.p.p.p.q.q.q.r.s.s.s.t.t.t.u.u.v.v.v.w.w.w.x.x.x.y.z.z.z.",
"i.i.i.j.k.k.k.l.l.l.m.m.m.n.n.o.o.o.p.p.p.q.q.q.r.s.s.s.t.t.t.u.u.v.v.v.w.w.w.x.x.x.y.z.z.z.",
"i.i.i.j.k.k.k.l.l.l.m.m.m.n.n.o.o.o.p.p.p.q.q.q.r.s.s.s.t.t.t.u.u.v.v.v.w.w.w.x.x.x.y.z.z.z.",
"A.A.A.B.C.C.C.D.D.D.E.E.E.F.F.G.G.G.H.H.H.I.I.I.J.K.K.K.L.L.L.M.M.N.N.N.O.O.O.P.P.P.Q.R.R.R.",
"A.A.A.B.C.C.C.D.D.D.E.E.E.F.F.G.G.G.H.H.H.I.I.I.J.K.K.K.L.L.L.M.M.N.N.N.O.O.O.P.P.P.Q.R.R.R.",
"S.S.S.T.U.U.U.V.V.V.W.W.W.X.X.Y.Y.Y.Z.Z.Z.`.`.`. +.+.+.+++++++@+@+#+#+#+$+$+$+%+%+%+&+      ",
"S.S.S.T.U.U.U.V.V.V.W.W.W.X.X.Y.Y.Y.Z.Z.Z.`.`.`. +.+.+.+++++++@+@+#+#+#+$+$+$+%+%+%+&+      ",
"S.S.S.T.U.U.U.V.V.V.W.W.W.X.X.Y.Y.Y.Z.Z.Z.`.`.`. +.+.+.+++++++@+@+#+#+#+$+$+$+%+%+%+&+      ",
"        *+*+*+=+=+=+          -+-+-+;+;+;+>+>+>+,+'+'+'+)+)+)+          !+!+!+~+~+~+        ",
"        *+*+*+=+=+=+          -+-+-+;+;+;+>+>+>+,+'+'+'+)+)+)+          !+!+!+~+~+~+        ",
"        *+*+*+=+=+=+          -+-+-+;+;+;+>+>+>+,+'+'+'+)+)+)+          !+!+!+~+~+~+        ",
"                              {+{+{+]+]+]+^+^+^+/+(+(+(+_+_+_+                              ",
"                              {+{+{+]+]+]+^+^+^+/+(+(+(+_+_+_+                              ",
"                              {+{+{+]+]+]+^+^+^+/+(+(+(+_+_+_+                              ",
"                              :+:+:+<+<+<+[+[+[+}+|+|+|+1+1+1+                              ",
"                                    2+2+2+3+3+3+4+                                          ",
"                                    2+2+2+3+3+3+4+                                          ",
"                                    2+2+2+3+3+3+4+                                          "};
